PathFileType	4	(X/Y/Z)	CPRIT_Patient3_R_AnkleIso_Processed.TRC
DataRate	CameraRate	NumFrames	NumMarkers	Units	OrigDataRate	OrigDataStartFrame	OrigNumFrames
150.227617602428	150.227617602428	4	39	m	150.227617602428	248	       661
Frame#	Time	R.Heel			R.Midfoot.Superior			R.Midfoot.Lateral			R.Toe			L.Heel			L.Midfoot.Superior			L.Midfoot.Lateral			L.Toe			R.Shank.Superior			R.Shank.Inferior			R.Shank.Lateral			R.Shank.Posterior			L.Shank.Superior			L.Shank.Inferior			L.Shank.Posterior			L.Shank.Lateral			R.Patella			L.Patella			R.Thigh.Superior			R.Thigh.Lateral			R.Thigh.Inferior			L.Thigh.Superior			L.Thigh.Inferior			L.Thigh.Lateral			L.Asis			R.Asis			Sacral			R.Shoulder			L.Shoulder			C7			J.Notch			Sternum			Thoracic			L.Elbow			L.Wrist			R.Elbow			R.Wrist			R.PSIS			L.PSIS			
		X1	Y1	Z1	X2	Y2	Z2	X3	Y3	Z3	X4	Y4	Z4	X5	Y5	Z5	X6	Y6	Z6	X7	Y7	Z7	X8	Y8	Z8	X9	Y9	Z9	X10	Y10	Z10	X11	Y11	Z11	X12	Y12	Z12	X13	Y13	Z13	X14	Y14	Z14	X15	Y15	Z15	X16	Y16	Z16	X17	Y17	Z17	X18	Y18	Z18	X19	Y19	Z19	X20	Y20	Z20	X21	Y21	Z21	X22	Y22	Z22	X23	Y23	Z23	X24	Y24	Z24	X25	Y25	Z25	X26	Y26	Z26	X27	Y27	Z27	X28	Y28	Z28	X29	Y29	Z29	X30	Y30	Z30	X31	Y31	Z31	X32	Y32	Z32	X33	Y33	Z33	X34	Y34	Z34	X35	Y35	Z35	X36	Y36	Z36	X37	Y37	Z37	X38	Y38	Z38	X39	Y39	Z39	

248	1.644171717172	0.966799100140	0.126533196970	0.170742460255	1.138032178443	0.165532646050	0.202490531501	1.034959079471	0.115961881142	0.237021446331	1.246738640017	0.113441620778	0.232264313479	0.643935510995	0.042756373505	-0.093850933482	0.806531065152	0.095569144931	-0.144637134351	0.709477659180	0.032658366492	-0.166048354331	0.920248132735	0.056587517505	-0.173579252267	0.989967523840	0.437355868006	0.158515823655	1.027779049522	0.323200645075	0.180444323909	0.937870376213	0.357248083411	0.215263943974	0.860397173514	0.379453458088	0.148719923214	0.769626325113	0.363245497500	-0.168543883411	0.757674110755	0.236067994311	-0.152068607458	0.631275569870	0.344233626645	-0.152178048946	0.695513007252	0.277739132418	-0.205685730627	0.968024921643	0.554586447772	0.119198380544	0.799815378035	0.466176541202	-0.167590868261	0.872607987826	0.840121000597	0.089694275497	0.824245304462	0.758493195940	0.146716519244	0.930508207617	0.697564304833	0.077936755386	0.858334722373	0.775833389766	-0.184260605655	0.840339761171	0.611396460540	-0.171225367111	0.757965457697	0.703804987046	-0.242838362256	0.852613004292	0.936601332492	-0.177703237363	0.813014851860	0.950943445717	0.062945539537	0.644802306361	0.984646004081	-0.077986821930	0.768517344864	1.438145624888	0.090812312400	0.812518047116	1.456397372852	-0.217853123092	0.746746007170	1.477057167564	-0.063447038993	0.850417210778	1.363384750649	-0.057781339946	0.890507290705	1.185662733689	-0.064509307175	0.641827841495	1.326909429845	-0.085532422608	0.850943890331	1.173952071791	-0.384027268855	1.008539237857	0.988458088490	-0.444324014835	0.768312756166	1.165165630594	0.274791011855	0.906624318182	0.991689386065	0.404961098837	0.640587877721	0.985695668020	-0.041217104734	0.648815885771	0.985564687435	-0.114965000479	
249	1.650828282828	0.967364304260	0.126476648591	0.171136476472	1.138443219077	0.166088763501	0.202957708154	1.035446873206	0.116351157750	0.237556104122	1.247225057296	0.114504920448	0.233113240599	0.643936003486	0.042756820840	-0.093850365604	0.806532840645	0.095567980613	-0.144630892951	0.709478397187	0.032659812733	-0.166047549746	0.920250266524	0.056584895994	-0.173577409018	0.990217516356	0.437563964589	0.158802840502	1.028095778202	0.323445113149	0.180788509521	0.938158945116	0.357446206890	0.215553940094	0.860733022919	0.379585103719	0.148980326951	0.769692099578	0.363236810943	-0.168522612603	0.757714224317	0.236060848690	-0.152057814064	0.631343779427	0.344250127887	-0.152173514121	0.695569285069	0.277743830944	-0.205679241723	0.968206434060	0.554763295731	0.119443431187	0.799904558346	0.466201455269	-0.167590573879	0.872669089008	0.840211499500	0.089766594404	0.824304307015	0.758586641291	0.146803827365	0.930628282240	0.697690066080	0.078092508976	0.858459877442	0.775845513279	-0.184190324869	0.840499546134	0.611408380359	-0.171110598221	0.758222532402	0.703840425470	-0.242846288776	0.852679110565	0.936614035957	-0.177707550253	0.813056039325	0.950991781045	0.062941310510	0.644859236313	0.984622498424	-0.078017044663	0.768479903837	1.438131154384	0.090793992754	0.812488983870	1.456400585307	-0.217883810757	0.746715195163	1.477061954406	-0.063475292420	0.850395779319	1.363387505123	-0.057803440580	0.890503538865	1.185677418840	-0.064543763963	0.641814651620	1.326902713885	-0.085578964752	0.850940076576	1.173949123653	-0.384046089846	1.008542670604	0.988458635349	-0.444332030858	0.768306408688	1.165143452805	0.274762698116	0.906624778968	0.991688893832	0.404954102525	0.640635726170	0.985676590259	-0.041251793488	0.648882032800	0.985547090502	-0.114998708180	
250	1.657484848485	0.967916357240	0.126425697737	0.171524937487	1.138843827673	0.166625835276	0.203409340986	1.035927491234	0.116722108012	0.238072853828	1.247705321838	0.115532018111	0.233913918909	0.643936532146	0.042757294777	-0.093849804014	0.806534944964	0.095567235147	-0.144623739836	0.709479152821	0.032661309223	-0.166046692715	0.920252315120	0.056582262634	-0.173575502560	0.990466367719	0.437768136240	0.159085011940	1.028408181349	0.323685079047	0.181126350793	0.938443478636	0.357640942241	0.215839917143	0.861064020911	0.379715386204	0.149234463208	0.769761271344	0.363227969760	-0.168499883535	0.757755706698	0.236053291898	-0.152046341225	0.631415015115	0.344267535363	-0.152167565806	0.695627811872	0.277749128448	-0.205671787264	0.968389203188	0.554937611735	0.119683983120	0.799996393416	0.466225203326	-0.167587857611	0.872732967843	0.840301137056	0.089839514727	0.824366135073	0.758678665356	0.146891435877	0.930750277971	0.697814907314	0.078247279968	0.858590939441	0.775857995829	-0.184112375831	0.840667060373	0.611420707411	-0.170985152260	0.758497281857	0.703880797695	-0.242853565557	0.852747090808	0.936627152010	-0.177709897911	0.813099256690	0.951040842243	0.062939177853	0.644918132073	0.984599610222	-0.078044365304	0.768441855310	1.438117212877	0.090776744044	0.812462003439	1.456404294152	-0.217913239122	0.746684114147	1.477067212798	-0.063502391316	0.850375267893	1.363392091008	-0.057824579210	0.890501849081	1.185693751759	-0.064576371634	0.641802804371	1.326895388876	-0.085625654891	0.850938811019	1.173947182266	-0.384064093660	1.008547016553	0.988459520749	-0.444340267171	0.768300369470	1.165121430604	0.274734676420	0.906625557731	0.991688367935	0.404947071497	0.640685676934	0.985657892805	-0.041283726026	0.648950625069	0.985530623635	-0.115029602293	
251	1.664141414141	0.968454602690	0.126379414935	0.171904579489	1.139232521257	0.167143290832	0.203846915384	1.036398871354	0.117075003942	0.238570842337	1.248177841968	0.116522351806	0.234671136703	0.643937092849	0.042757821724	-0.093849277185	0.806537362834	0.095566815245	-0.144615836399	0.709479924428	0.032662844602	-0.166045797375	0.920254262458	0.056579619114	-0.173573543801	0.990714063605	0.437967807652	0.159361674280	1.028715912082	0.323919764425	0.181456871918	0.938723587883	0.357831465614	0.216120387954	0.861389741396	0.379843699582	0.149480466337	0.769833642750	0.363218940130	-0.168476082215	0.757798459695	0.236045316977	-0.152034369463	0.631489124689	0.344285791990	-0.152160616044	0.695688515862	0.277754981433	-0.205663615584	0.968573458959	0.555109070190	0.119919689970	0.800090732634	0.466247664030	-0.167583068362	0.872799430173	0.840389622517	0.089913086157	0.824430407877	0.758768659505	0.146979126563	0.930874266837	0.697938741526	0.078401347279	0.858727118020	0.775870859671	-0.184027710530	0.840841269729	0.611433446263	-0.170850563821	0.758787432228	0.703925725073	-0.242860290397	0.852816688377	0.936640687747	-0.177710300698	0.813144426425	0.951090172390	0.062939133390	0.644978835024	0.984577386840	-0.078068681940	0.768403514646	1.438103876175	0.090760678862	0.812437038626	1.456408307817	-0.217941215315	0.746652882269	1.477072756490	-0.063527974087	0.850355805687	1.363398354826	-0.057844517815	0.890502260187	1.185711539242	-0.064606900309	0.641792436732	1.326887203233	-0.085671704038	0.850939984186	1.173946118138	-0.384081129534	1.008552199125	0.988460726018	-0.444348802745	0.768294716054	1.165099767632	0.274707244580	0.906626697730	0.991687843268	0.404940129040	0.640737644573	0.985639562938	-0.041312746713	0.649021403849	0.985515226545	-0.115057492112	
